Coordinates
version=1
nRows=54
nColumns=12
inDegrees=yes

Units are S.I. units (second, meters, Newtons, ...)
Angles are in degrees

endheader
time	SC_y	SC_z	SC_x	AC_y	AC_z	AC_x	GH_y	GH_z	GH_yy	EL_x	PS_y
       0.0              -34.67          10.92          82.97          54.31         -9.912          5.105          63.68          33.59          130.3          61.53          46.46
  0.001503              -34.67          10.92          82.96          54.31         -9.913          5.106          63.65          33.59          130.3          61.53          46.47
  0.003006              -34.67          10.92          82.95          54.31         -9.914          5.108          63.61           33.6          130.3          61.53          46.49
  0.004509              -34.67          10.92          82.93          54.31         -9.915           5.11          63.57          33.61          130.3          61.53           46.5
  0.006012              -34.66          10.92          82.92          54.31         -9.916          5.112          63.53          33.61          130.3          61.53          46.52
  0.007515              -34.66          10.92           82.9          54.31         -9.918          5.114          63.48          33.62          130.3          61.53          46.54
  0.009018              -34.66          10.92          82.89          54.31         -9.919          5.117          63.44          33.63          130.3          61.54          46.56
   0.01052              -34.65          10.91          82.87          54.31          -9.92          5.119          63.38          33.64          130.3          61.54          46.58
   0.01202              -34.65          10.91          82.85           54.3         -9.922          5.122          63.33          33.65          130.3          61.54           46.6
   0.01353              -34.65          10.91          82.84           54.3         -9.923          5.125          63.27          33.66          130.3          61.54          46.62
   0.01503              -34.64          10.91          82.82           54.3         -9.925          5.128          63.21          33.68          130.3          61.55          46.65
   0.01653              -34.64          10.91          82.79           54.3         -9.927          5.132          63.14          33.69          130.3          61.55          46.68
   0.01804              -34.64          10.91          82.77           54.3         -9.929          5.135          63.06           33.7          130.4          61.55           46.7
   0.01954              -34.63           10.9          82.74           54.3         -9.931          5.139          62.98          33.72          130.4          61.56          46.74
   0.02104              -34.63           10.9          82.72           54.3         -9.933          5.144           62.9          33.74          130.4          61.56          46.77
   0.02254              -34.62           10.9          82.69           54.3         -9.936          5.148           62.8          33.75          130.4          61.56          46.81
   0.02405              -34.62           10.9          82.65           54.3         -9.938          5.153           62.7          33.77          130.4          61.57          46.85
   0.02555              -34.61          10.89          82.62           54.3         -9.941          5.159          62.59          33.79          130.4          61.57          46.89
   0.02705               -34.6          10.89          82.58           54.3         -9.945          5.165          62.47          33.82          130.4          61.58          46.94
   0.02856               -34.6          10.89          82.53          54.29         -9.948          5.171          62.34          33.84          130.4          61.58           47.0
   0.03006              -34.59          10.88          82.49          54.29         -9.952          5.179          62.19          33.87          130.4          61.59          47.05
   0.03156              -34.58          10.88          82.44          54.29         -9.956          5.187          62.03           33.9          130.4           61.6          47.12
   0.03306              -34.57          10.88          82.38          54.29         -9.961          5.195          61.85          33.93          130.4           61.6          47.19
   0.03457              -34.56          10.87          82.32          54.29         -9.966          5.205          61.66          33.97          130.4          61.61          47.27
   0.03607              -34.55          10.87          82.25          54.29         -9.972          5.216          61.44          34.01          130.5          61.62          47.35
   0.03757              -34.53          10.86          82.17          54.28         -9.978          5.228           61.2          34.06          130.5          61.63          47.45
   0.03908              -34.52          10.85          82.08          54.28         -9.986          5.242          60.92          34.11          130.5          61.64          47.56
   0.04058               -34.5          10.84          81.98          54.28         -9.994          5.257          60.62          34.17          130.5          61.65          47.68
   0.04208              -34.48          10.84          81.87          54.27          -10.0          5.274          60.27          34.24          130.5          61.67          47.82
   0.04359              -34.46          10.83          81.74          54.27         -10.01          5.294          59.88          34.31          130.6          61.69          47.98
   0.04509              -34.43          10.81           81.6          54.26         -10.03          5.316          59.43           34.4          130.6           61.7          48.16
   0.04659               -34.4           10.8          81.43          54.26         -10.04          5.342          58.91          34.49          130.6          61.73          48.36
   0.04809              -34.37          10.79          81.24          54.25         -10.06          5.371          58.32          34.61          130.7          61.75           48.6
    0.0496              -34.33          10.77          81.02          54.25         -10.07          5.405          57.63          34.74          130.7          61.78          48.88
    0.0511              -34.29          10.75          80.76          54.24          -10.1          5.446          56.82          34.89          130.8          61.81           49.2
    0.0526              -34.23          10.72          80.45          54.23         -10.12          5.493          55.86          35.08          130.8          61.85          49.58
   0.05411              -34.17           10.7          80.08          54.22         -10.15          5.549          54.73          35.29          130.9           61.9          50.04
   0.05561              -34.09          10.66          79.65           54.2         -10.19          5.617          53.37          35.55          131.0          61.96          50.58
   0.05711               -34.0          10.62          79.12          54.19         -10.23          5.698          51.73          35.86          131.1          62.03          51.24
   0.05862              -33.89          10.57          78.47          54.17         -10.28          5.798          49.72          36.25          131.3          62.11          52.04
   0.06012              -33.75          10.51          77.67          54.14         -10.35          5.921          47.24          36.72          131.4          62.21          53.03
   0.06162              -33.58          10.43          76.67          54.11         -10.43          6.075          44.15          37.31          131.6          62.34          54.27
   0.06312              -33.36          10.33          75.42          54.07         -10.54          6.268          40.26          38.05          131.9           62.5          55.83
   0.06463              -33.08          10.21          73.83          54.02         -10.67          6.514          35.31          38.99          132.2          62.71           57.8
   0.06613              -32.73          10.05          71.78          53.95         -10.84          6.828          28.98           40.2          132.6          62.98          60.34
   0.06763              -32.27           9.84          69.17          53.87         -11.05          7.232          20.85          41.75          133.2          63.31          63.59
   0.06914              -31.69          9.577          65.82          53.76         -11.33          7.747          10.47          43.73          133.9          63.75          67.74
   0.07064              -30.96          9.248          61.61          53.63         -11.68          8.396         -2.581          46.22          134.8          64.29          72.96
   0.07214              -30.07          8.846          56.49          53.47          -12.1          9.186         -18.49          49.25          135.8          64.96          79.32
   0.07364              -29.04           8.38          50.54          53.28         -12.59           10.1         -36.93          52.77          137.1          65.73           86.7
   0.07515              -27.92          7.875          44.11          53.08         -13.12          11.09         -56.89          56.57          138.4          66.56          94.68
   0.07665              -26.81           7.37          37.68          52.87         -13.65          12.08         -76.86          60.38          139.8          67.39          102.7
   0.07815              -25.77          6.905          31.73          52.69         -14.14           13.0         -95.29           63.9          141.0          68.16          110.0
   0.07966              -24.88          6.503          26.61          52.52         -14.57          13.79         -111.2          66.93          142.1          68.83          116.4
